<svg width="180" height="18" viewBox="0,0,180,18" xmlns="http://www.w3.org/2000/svg"><svg ti:v="1" width="16" height="16" viewBox="0,0,16,15.9999990463257" xmlns="http://www.w3.org/2000/svg" xmlns:ti="urn:schemas-jetbrains-com:tisvg" x="0" y="0"><g><path fill-rule="evenodd" d="M0,0L16,0L16,15.999999046325684L0,15.999999046325684Z" fill="#FFFFFF" opacity="0" /><linearGradient id="F10" x1="0.499998" y1="0.0185669" x2="0.499998" y2="1.02011"><stop offset="0" stop-color="#5572A1" /><stop offset="1" stop-color="#405980" /></linearGradient><path fill-rule="evenodd" d="M0,8.4999998641967771C0,9.8808998641967776,1.1189999999999998,10.999999864196777,2.5,10.999999864196777L2.5,10.999999864196777C3.3149999999999977,10.999999864196777,4.0319999999999965,10.602999864196779,4.4890000000000043,9.9999998641967771L5,9.9999998641967771L5,6.9999998641967771L4.4890000000000043,6.9999998641967771C4.0319999999999965,6.3968998641967758,3.3149999999999977,5.9999998641967771,2.5,5.9999998641967771L2.5,5.9999998641967771C1.1189999999999998,5.9999998641967771,0,7.1199998641967781,0,8.4999998641967771Z" fill="url(#F10)" /><linearGradient id="F20" x1="0.5" y1="0.0185615" x2="0.5" y2="1.0201"><stop offset="0" stop-color="#566980" /><stop offset="1" stop-color="#2C3641" /></linearGradient><path fill-rule="evenodd" d="M8,3.9999998641967771C6.3449999999999989,3.9999998641967771,5,5.3459998641967772,5,6.9999998641967771L5,9.9999998641967771C5,11.654999864196778,6.3449999999999989,12.999999864196777,8,12.999999864196777L13,12.999999864196777C14.653999999999996,12.999999864196777,16,11.654999864196778,16,9.9999998641967771L16,6.9999998641967771C16,5.3459998641967772,14.653999999999996,3.9999998641967771,13,3.9999998641967771L8,3.9999998641967771Z" fill="url(#F20)" /><linearGradient id="F30" x1="0.5" y1="0.0101929" x2="0.5" y2="1.00085"><stop offset="0" stop-color="#FFFFFF" /><stop offset="1" stop-color="#A7BBDB" /></linearGradient><path fill-rule="evenodd" d="M8,4.9999998641967771C6.9000000000000057,4.9999998641967771,6,5.8999998641967775,6,6.9999998641967771L6,7.9999998641967771L6,8.9999998641967771L6,9.9999998641967771C6,11.098999864196777,6.9000000000000057,11.999999864196777,8,11.999999864196777L13,11.999999864196777C14.099999999999994,11.999999864196777,15,11.098999864196777,15,9.9999998641967771L15,6.9999998641967771C15,5.8999998641967775,14.099999999999994,4.9999998641967771,13,4.9999998641967771L8,4.9999998641967771Z" fill="url(#F30)" /><linearGradient id="F40" x1="0.5" y1="1.2207E-05" x2="0.5" y2="1.06713"><stop offset="0" stop-color="#A7BBDB" /><stop offset="1" stop-color="#FFFFFF" /></linearGradient><path fill-rule="evenodd" d="M8,5.9999998641967771C7.4489999999999981,5.9999998641967771,7,6.4479998641967775,7,6.9999998641967771L7,9.9999998641967771C7,10.551999864196777,7.4489999999999981,10.999999864196777,8,10.999999864196777L13,10.999999864196777C13.552000000000007,10.999999864196777,14,10.551999864196777,14,9.9999998641967771L14,6.9999998641967771C14,6.4479998641967775,13.552000000000007,5.9999998641967771,13,5.9999998641967771L8,5.9999998641967771Z" fill="url(#F40)" /><path fill-rule="evenodd" d="M6,7.9999998641967771L3.9080000000000013,7.9999998641967771C3.7019999999999982,7.4189998641967776,3.152000000000001,6.9999998641967771,2.5,6.9999998641967771C1.6710000000000065,6.9999998641967771,1,7.6719998641967777,1,8.4999998641967771C1,9.3279998641967765,1.6710000000000065,9.9999998641967771,2.5,9.9999998641967771C3.152000000000001,9.9999998641967771,3.7019999999999982,9.5809998641967766,3.9080000000000013,8.9999998641967771L6,8.9999998641967771L6,7.9999998641967771Z" fill="#7ED5FF" /><path fill-rule="evenodd" d="M3,8.4999998641967771C3,8.7759998641967769,2.7759999999999962,8.9999998641967771,2.5,8.9999998641967771C2.2240000000000038,8.9999998641967771,2,8.7759998641967769,2,8.4999998641967771C2,8.2239998641967773,2.2240000000000038,7.9999998641967771,2.5,7.9999998641967771C2.7759999999999962,7.9999998641967771,3,8.2239998641967773,3,8.4999998641967771Z" fill="#00FFFF" /></g></svg><svg ti:v="1" width="16" height="16" viewBox="0,0,16,16" xmlns="http://www.w3.org/2000/svg" xmlns:ti="urn:schemas-jetbrains-com:tisvg" x="18" y="0"><g><path fill-rule="evenodd" d="M0,0L16,0L16,16L0,16Z" fill="#FFFFFF" opacity="0" /><linearGradient id="F11" x1="0.499999" y1="0" x2="0.499999" y2="1"><stop offset="0" stop-color="#E9FF5E" /><stop offset="1" stop-color="#C1DD00" /></linearGradient><path fill-rule="evenodd" d="M6.8379999999999939,1L6.6839999999999975,1.0509999999999877C5.4849999999999994,1.4499999999999886,3.284000000000006,2.9379999999999882,3.0250000000000057,5.7930000000000064L2,6.4560000000000173L2,8.5439999999999827L3.0250000000000057,9.2069999999999936C3.284000000000006,12.062000000000012,5.4849999999999994,13.550000000000011,6.6839999999999975,13.949000000000012L6.8379999999999939,14L9.1620000000000061,14L9.3160000000000025,13.949000000000012C10.513999999999996,13.550000000000011,12.716999999999999,12.062000000000012,12.974999999999994,9.2069999999999936L14,8.5439999999999827L14,6.4560000000000173L12.974999999999994,5.7930000000000064C12.716999999999999,2.9379999999999882,10.513999999999996,1.4499999999999886,9.3160000000000025,1.0509999999999877L9.1620000000000061,1L6.8379999999999939,1Z" fill="url(#F11)" /><path fill-rule="evenodd" d="M11.5,7L11.5,8L10.5,9C10.5,11,9,12,9,12L9,13C9,13,12,12,12,8.646000000000015L13,8L13,7L12,6.353999999999985C12,3,9,2,9,2L9,3C9,3,10.5,4,10.5,6M5.5,6C5.5,4,7,3,7,3L7,2C7,2,4,3,4,6.353999999999985L3,7L3,8L4,8.646000000000015C4,12,7,13,7,13L7,12C7,12,5.5,11,5.5,9L4.5,8L4.5,7L5.5,6Z" fill="#495E00" /></g></svg><svg ti:v="1" width="16" height="16" viewBox="0,0,16,16" xmlns="http://www.w3.org/2000/svg" xmlns:ti="urn:schemas-jetbrains-com:tisvg" x="36" y="0"><g><path fill-rule="evenodd" d="M0,0L16,0L16,16L0,16Z" fill="#FFFFFF" opacity="0" /><path fill-rule="evenodd" d="M7,13L7,8L3.5859999999999985,8L6.5859999999999985,5L14.414000000000001,5L11.414000000000001,8L10,8L10,10L14.414000000000001,10L11.414000000000001,13L7,13Z" fill="#324A63" /><linearGradient id="F22" x1="0.499996" y1="0" x2="0.499996" y2="1.00001"><stop offset="0" stop-color="#1C568E" /><stop offset="1" stop-color="#000E4F" /></linearGradient><path fill-rule="evenodd" d="M16,12.414000000000001L16,11.585999999999999L13,8.5859999999999985L8.5859999999999985,13L11.585999999999999,16L12.414000000000001,16L16,12.414000000000001Z" fill="url(#F22)" /><linearGradient id="F32" x1="0.499996" y1="0" x2="0.499996" y2="1.00002"><stop offset="0" stop-color="#720872" /><stop offset="1" stop-color="#540A54" /></linearGradient><path fill-rule="evenodd" d="M16,6.5859999999999985L13,3.5859999999999985L8.5859999999999985,8L12,11.414000000000001L16,7.4140000000000015L16,6.5859999999999985Z" fill="url(#F32)" /><linearGradient id="F42" x1="0.5" y1="1.2207E-05" x2="0.5" y2="1.00001"><stop offset="0" stop-color="#EBACF6" /><stop offset="1" stop-color="#DA6EDB" /></linearGradient><path fill-rule="evenodd" d="M13,5L15,7L12,10L10,8L13,5Z" fill="url(#F42)" /><linearGradient id="F52" x1="0.5" y1="1.2207E-05" x2="0.5" y2="1.00001"><stop offset="0" stop-color="#9CCDFD" /><stop offset="1" stop-color="#5D9AD8" /></linearGradient><path fill-rule="evenodd" d="M13,10L15,12L12,15L10,13L13,10Z" fill="url(#F52)" /><linearGradient id="F62" x1="0.500002" y1="5.86087E-06" x2="0.500002" y2="1.00001"><stop offset="0" stop-color="#6E4D00" /><stop offset="1" stop-color="#422D00" /></linearGradient><path fill-rule="evenodd" d="M0,5.5859999999999985L0,6.4140000000000015L4,10.414000000000001L10.414000000000001,4L6.4140000000000015,0L5.5859999999999985,0L0,5.5859999999999985Z" fill="url(#F62)" /><linearGradient id="F72" x1="0.499999" y1="7.62939E-06" x2="0.499999" y2="1.00001"><stop offset="0" stop-color="#F6DF85" /><stop offset="1" stop-color="#EDB62A" /></linearGradient><path fill-rule="evenodd" d="M4,9L1,6L6,1L9,4L4,9Z" fill="url(#F72)" /><path fill-rule="evenodd" d="M11,7L11,6L7,6L7,7L8,7L8,12L11,12L11,11L9,11L9,7L11,7Z" fill="#FFFFFF" /></g></svg><svg ti:v="1" width="16" height="16" viewBox="0,0,16,16" xmlns="http://www.w3.org/2000/svg" xmlns:ti="urn:schemas-jetbrains-com:tisvg" x="54" y="0"><g><path fill-rule="evenodd" d="M0,0L16,0L16,16L0,16Z" fill="#FFFFFF" opacity="0" /><linearGradient id="F13" x1="0.499999" y1="4.69501E-06" x2="0.499999" y2="1"><stop offset="0" stop-color="#800080" /><stop offset="1" stop-color="#5B005B" /></linearGradient><path fill-rule="evenodd" d="M2,4.160000000000025L2,10.841000000000008L7.7420000000000044,14L8.2579999999999956,14L14,10.841000000000008L14,4.160000000000025L8.2579999999999956,1L7.7420000000000044,1L2,4.160000000000025Z" fill="url(#F13)" /><linearGradient id="F23" x1="0.0278305" y1="0.5" x2="1.01539" y2="0.5"><stop offset="0" stop-color="#FD59FF" /><stop offset="1" stop-color="#FF9CFF" /></linearGradient><path fill-rule="evenodd" d="M3,5.25L3,10.25L8,13L8,8L3,5.25Z" fill="url(#F23)" /><linearGradient id="F33" x1="0.0278305" y1="0.5" x2="1.01539" y2="0.5"><stop offset="0" stop-color="#FD33FF" /><stop offset="1" stop-color="#FFA3FF" /></linearGradient><path fill-rule="evenodd" d="M13,5.25L8,8L8,13L13,10.25L13,5.25Z" fill="url(#F33)" /><path fill-rule="evenodd" d="M12.544899999999998,4.5L7.9998999999999967,7L3.454899999999995,4.5L2.9998999999999967,4.7509999999999764L2.9998999999999967,5.25L7.9998999999999967,8L12.999899999999997,5.25L12.999899999999997,4.7509999999999764L12.544899999999998,4.5Z" fill="#FFFFFF" /><linearGradient id="F53" x1="0.499999" y1="0.0277466" x2="0.499999" y2="1.01531"><stop offset="0" stop-color="#FD54FF" /><stop offset="1" stop-color="#FFBFFF" /></linearGradient><path fill-rule="evenodd" d="M8,7L12.545000000000002,4.5L8,2L3.4549999999999983,4.5L8,7Z" fill="url(#F53)" /></g></svg><svg width="16" height="16" viewBox="0,0,16,16" x="72" y="0"><svg ti:v="1" width="16" height="16" viewBox="0,0,16,16" xmlns="http://www.w3.org/2000/svg" xmlns:ti="urn:schemas-jetbrains-com:tisvg"><g><path fill-rule="evenodd" d="M0,0L16,0L16,16L0,16Z" fill="#FFFFFF" opacity="0" /><linearGradient id="F104" x1="0.499999" y1="4.69501E-06" x2="0.499999" y2="1"><stop offset="0" stop-color="#800080" /><stop offset="1" stop-color="#5B005B" /></linearGradient><path fill-rule="evenodd" d="M2,4.160000000000025L2,10.841000000000008L7.7420000000000044,14L8.2579999999999956,14L14,10.841000000000008L14,4.160000000000025L8.2579999999999956,1L7.7420000000000044,1L2,4.160000000000025Z" fill="url(#F104)" /><linearGradient id="F204" x1="0.0278305" y1="0.5" x2="1.01539" y2="0.5"><stop offset="0" stop-color="#FD59FF" /><stop offset="1" stop-color="#FF9CFF" /></linearGradient><path fill-rule="evenodd" d="M3,5.25L3,10.25L8,13L8,8L3,5.25Z" fill="url(#F204)" /><linearGradient id="F304" x1="0.0278305" y1="0.5" x2="1.01539" y2="0.5"><stop offset="0" stop-color="#FD33FF" /><stop offset="1" stop-color="#FFA3FF" /></linearGradient><path fill-rule="evenodd" d="M13,5.25L8,8L8,13L13,10.25L13,5.25Z" fill="url(#F304)" /><path fill-rule="evenodd" d="M12.544899999999998,4.5L7.9998999999999967,7L3.454899999999995,4.5L2.9998999999999967,4.7509999999999764L2.9998999999999967,5.25L7.9998999999999967,8L12.999899999999997,5.25L12.999899999999997,4.7509999999999764L12.544899999999998,4.5Z" fill="#FFFFFF" /><linearGradient id="F504" x1="0.499999" y1="0.0277466" x2="0.499999" y2="1.01531"><stop offset="0" stop-color="#FD54FF" /><stop offset="1" stop-color="#FFBFFF" /></linearGradient><path fill-rule="evenodd" d="M8,7L12.545000000000002,4.5L8,2L3.4549999999999983,4.5L8,7Z" fill="url(#F504)" /></g></svg><svg ti:v="1" width="16" height="16" viewBox="0,0,16,16" xmlns="http://www.w3.org/2000/svg" xmlns:ti="urn:schemas-jetbrains-com:tisvg"><g><path fill-rule="evenodd" d="M0,0L16,0L16,16L0,16Z" fill="#FFFFFF" opacity="0" /><linearGradient id="F114" x1="0.5" y1="0.0162048" x2="0.5" y2="1.00555"><stop offset="0" stop-color="#776004" /><stop offset="1" stop-color="#443400" /></linearGradient><path fill-rule="evenodd" d="M7,16L0,16L0,10L7,10L7,16Z" fill="url(#F114)" /><linearGradient id="F214" x1="0" y1="0.500015" x2="1" y2="0.500015"><stop offset="0" stop-color="#D6B672" /><stop offset="0.31901800632476807" stop-color="#FDD89C" /><stop offset="1" stop-color="#C36D2A" /></linearGradient><path fill-rule="evenodd" d="M6,15L1,15L1,11L6,11L6,15Z" fill="url(#F214)" /><path fill-rule="evenodd" d="M3,14L4,14L4,12L3,12L3,14Z" fill="#000000" /><linearGradient id="F414" x1="0" y1="0.500015" x2="1" y2="0.500015"><stop offset="0" stop-color="#939597" /><stop offset="1" stop-color="#57595B" /></linearGradient><path fill-rule="evenodd" d="M3,6C1.8950000000000102,6,1,6.89500000000001,1,8L1,10L6,10L6,8C6,6.89500000000001,5.10499999999999,6,4,6L3,6Z" fill="url(#F414)" /><path fill-rule="evenodd" d="M4,7L3,7L2,8L2,10L3,10L3,8L4,8L4,10L5,10L5,8L4,7Z" fill="#FFFFFF" /></g></svg><svg ti:v="1" width="16" height="16" viewBox="0,0,16,16" xmlns="http://www.w3.org/2000/svg" xmlns:ti="urn:schemas-jetbrains-com:tisvg"><g><path fill-rule="evenodd" d="M0,0L16,0L16,16L0,16Z" fill="#FFFFFF" opacity="0" /><linearGradient id="F124" x1="0.499996" y1="4.35965E-06" x2="0.499996" y2="1"><stop offset="0" stop-color="#805D00" /><stop offset="1" stop-color="#563D00" /></linearGradient><path fill-rule="evenodd" d="M12.086000000000013,9L9,12.086000000000013L9,12.913999999999987L12.086000000000013,16L12.913999999999987,16L16,12.913999999999987L16,12.086000000000013L12.913999999999987,9L12.086000000000013,9Z" fill="url(#F124)" /><linearGradient id="F224" x1="0.499994" y1="6.10352E-06" x2="0.499994" y2="1.00001"><stop offset="0" stop-color="#FFFF80" /><stop offset="1" stop-color="#FFC300" /></linearGradient><path fill-rule="evenodd" d="M12.5,10L15,12.5L12.5,15L10,12.5L12.5,10Z" fill="url(#F224)" /></g></svg></svg></svg>